 <svg
                    width="25"
                    height="25"
                    viewBox="0 0 25 25"
                    fill="none"
                    xmlns="http://www.w3.org/2000/svg"
                  >
                    <path
                      d="M16.8828 2.82495C14.9994 2.82495 13.3278 3.56839 12.1953 4.8462C11.0628 3.56839 9.39125 2.82495 7.50781 2.82495C5.8674 2.82694 4.29473 3.47947 3.13478 4.63942C1.97483 5.79937 1.3223 7.37203 1.32031 9.01245C1.32031 15.7943 11.24 21.2131 11.6619 21.4409C11.8258 21.5292 12.0091 21.5754 12.1953 21.5754C12.3815 21.5754 12.5648 21.5292 12.7288 21.4409C13.1506 21.2131 23.0703 15.7943 23.0703 9.01245C23.0683 7.37203 22.4158 5.79937 21.2558 4.63942C20.0959 3.47947 18.5232 2.82694 16.8828 2.82495ZM16.3681 16.1712C15.0624 17.2792 13.6667 18.2764 12.1953 19.1525C10.724 18.2764 9.32819 17.2792 8.0225 16.1712C5.99094 14.4284 3.57031 11.7706 3.57031 9.01245C3.57031 7.96816 3.98516 6.96664 4.72358 6.22822C5.462 5.48979 6.46352 5.07495 7.50781 5.07495C9.17656 5.07495 10.5734 5.9562 11.1538 7.37558C11.2382 7.58249 11.3824 7.75956 11.5679 7.8842C11.7534 8.00884 11.9718 8.0754 12.1953 8.0754C12.4188 8.0754 12.6372 8.00884 12.8227 7.8842C13.0082 7.75956 13.1524 7.58249 13.2369 7.37558C13.8172 5.9562 15.2141 5.07495 16.8828 5.07495C17.9271 5.07495 18.9286 5.48979 19.667 6.22822C20.4055 6.96664 20.8203 7.96816 20.8203 9.01245C20.8203 11.7706 18.3997 14.4284 16.3681 16.1712Z"
                      fill="#D8D8D8"
                    />
                  </svg>